<svg xmlns="http://www.w3.org/2000/svg" xmlns:xlink="http://www.w3.org/1999/xlink" width="500" zoomAndPan="magnify" viewBox="0 0 375 374.999991" height="500" preserveAspectRatio="xMidYMid meet" version="1.0"><defs><clipPath id="711e7d622e"><path d="M 229.152344 158.039062 L 306.546875 158.039062 L 306.546875 301.175781 L 229.152344 301.175781 Z M 229.152344 158.039062 " clip-rule="nonzero"/></clipPath><clipPath id="f14eec94ee"><path d="M 229.238281 234.636719 C 229.238281 234.636719 229.238281 232.03125 229.238281 230.371094 C 229.238281 227.765625 229.238281 222.554688 229.238281 220.421875 C 229.238281 219.238281 229.238281 218.765625 229.238281 218.054688 C 229.238281 217.34375 229.238281 216.632812 229.238281 215.683594 C 229.238281 213.316406 229.238281 207.867188 229.472656 204.550781 C 229.472656 201.472656 229.472656 198.867188 229.472656 196.023438 C 229.472656 193.417969 229.472656 191.046875 229.238281 188.207031 C 229.238281 185.363281 229.238281 181.808594 229.238281 178.96875 C 229.238281 177.070312 229.238281 173.519531 229.238281 173.519531 C 229.238281 173.519531 229.238281 172.808594 229.472656 172.570312 C 229.472656 172.097656 229.472656 171.625 229.472656 171.625 C 229.472656 171.625 229.710938 170.914062 229.949219 170.675781 C 229.949219 170.4375 230.183594 169.730469 230.183594 169.730469 C 230.183594 169.730469 230.421875 169.253906 230.660156 169.019531 C 230.894531 168.78125 231.371094 168.308594 231.371094 168.308594 C 231.371094 168.308594 231.84375 167.832031 232.078125 167.597656 C 232.316406 167.359375 232.789062 166.886719 232.789062 166.886719 C 232.789062 166.886719 233.265625 166.648438 233.5 166.414062 C 233.738281 166.414062 234.449219 166.175781 234.449219 166.175781 C 234.449219 166.175781 234.921875 165.9375 235.394531 165.9375 C 235.632812 165.703125 236.105469 165.703125 236.34375 165.703125 C 236.34375 165.703125 236.816406 165.703125 237.292969 165.703125 C 237.527344 165.703125 238.238281 165.703125 238.238281 165.703125 C 238.238281 165.703125 238.710938 165.703125 238.949219 165.9375 C 239.421875 165.9375 239.898438 166.175781 239.898438 166.175781 C 239.898438 166.175781 240.609375 166.414062 240.84375 166.414062 C 241.082031 166.648438 241.554688 166.886719 241.554688 166.886719 C 241.792969 166.886719 242.265625 167.359375 242.503906 167.597656 C 242.738281 167.832031 242.976562 168.308594 243.214844 168.308594 C 243.214844 168.308594 243.449219 168.78125 243.6875 169.019531 C 243.925781 169.253906 244.160156 169.730469 244.160156 169.730469 C 244.160156 169.730469 244.398438 170.4375 244.636719 170.675781 C 244.636719 170.914062 244.871094 171.625 244.871094 171.625 C 244.871094 171.625 244.871094 172.097656 244.871094 172.570312 C 245.109375 172.808594 245.109375 173.519531 245.109375 173.519531 C 245.109375 173.519531 245.347656 173.753906 245.582031 173.753906 C 245.820312 173.753906 245.347656 172.808594 245.820312 172.335938 C 247.003906 171.148438 252.6875 169.730469 255.058594 169.492188 C 256.480469 169.253906 257.425781 170.203125 258.613281 169.492188 C 260.269531 168.542969 262.164062 161.4375 262.636719 161.4375 C 262.636719 161.675781 262.636719 162.148438 262.636719 162.148438 C 262.636719 162.148438 262.875 161.910156 262.875 161.675781 C 262.875 161.675781 263.347656 160.964844 263.347656 160.964844 C 263.347656 160.964844 263.824219 160.488281 264.058594 160.488281 C 264.058594 160.253906 264.535156 159.777344 264.535156 159.777344 C 264.535156 159.777344 265.007812 159.542969 265.246094 159.304688 C 265.71875 159.070312 266.191406 158.832031 266.191406 158.832031 C 266.191406 158.832031 266.664062 158.59375 266.902344 158.59375 C 267.140625 158.59375 267.851562 158.359375 267.851562 158.359375 C 267.851562 158.359375 268.324219 158.359375 268.796875 158.359375 C 269.035156 158.121094 269.507812 158.121094 269.507812 158.121094 C 269.507812 158.121094 270.21875 158.359375 270.457031 158.359375 C 270.691406 158.359375 271.402344 158.59375 271.402344 158.59375 C 271.402344 158.59375 271.878906 158.832031 272.113281 158.832031 C 272.351562 159.070312 273.0625 159.304688 273.0625 159.304688 C 273.0625 159.304688 273.535156 159.542969 273.773438 159.777344 C 274.007812 160.015625 274.246094 160.253906 274.484375 160.253906 C 274.484375 160.253906 275.195312 161.910156 275.90625 163.097656 C 277.324219 164.753906 280.40625 167.359375 282.300781 169.730469 C 284.433594 171.859375 287.039062 173.992188 288.695312 176.597656 C 290.355469 179.441406 291.300781 182.757812 292.25 186.3125 C 293.433594 189.628906 294.382812 193.179688 294.855469 197.207031 C 295.328125 201.707031 294.617188 211.421875 294.617188 211.65625 C 294.617188 211.65625 294.617188 212.132812 294.617188 212.605469 C 294.855469 212.84375 294.855469 213.554688 294.855469 213.554688 C 294.855469 213.554688 294.855469 214.027344 294.855469 214.5 C 294.855469 214.738281 294.617188 215.449219 294.617188 215.449219 C 294.617188 215.449219 294.382812 215.921875 294.382812 216.160156 C 294.382812 216.632812 294.144531 217.105469 294.144531 217.105469 C 294.144531 217.105469 293.671875 217.816406 293.671875 218.054688 C 293.433594 218.054688 293.199219 218.289062 293.199219 218.527344 C 293.199219 219.949219 298.171875 227.292969 298.171875 230.847656 C 298.171875 233.453125 296.277344 237.003906 295.328125 237.953125 C 294.855469 238.425781 293.90625 238.191406 293.671875 238.664062 C 293.671875 239.375 296.75 240.558594 297.460938 241.980469 C 298.644531 243.875 299.832031 246.71875 298.882812 249.085938 C 297.933594 252.167969 291.066406 257.378906 288.460938 258.089844 C 287.039062 258.5625 284.90625 257.140625 284.667969 257.613281 C 284.433594 257.851562 285.144531 258.324219 285.144531 258.800781 C 285.378906 259.273438 284.90625 259.984375 285.378906 260.21875 C 285.855469 260.695312 287.511719 259.984375 289.171875 260.21875 C 292.011719 260.695312 297.699219 261.167969 300.304688 263.773438 C 303.621094 266.617188 306.226562 273.484375 306.226562 277.511719 C 306.464844 280.355469 305.277344 283.4375 303.859375 284.855469 C 302.671875 286.277344 299.832031 285.804688 298.882812 286.988281 C 297.933594 288.171875 299.121094 291.015625 298.171875 292.910156 C 296.75 295.515625 292.960938 299.070312 289.882812 300.253906 C 286.800781 301.675781 283.011719 300.730469 279.457031 300.730469 C 275.667969 300.492188 271.640625 300.730469 268.085938 300.019531 C 265.007812 299.308594 262.402344 297.886719 260.03125 296.464844 C 257.902344 295.042969 256.953125 292.675781 254.585938 291.964844 C 251.980469 290.777344 247.003906 292.910156 244.160156 291.964844 C 241.792969 291.015625 240.132812 289.121094 238.710938 286.988281 C 237.054688 284.621094 235.871094 281.304688 235.394531 278.460938 C 234.921875 275.382812 235.394531 271.828125 236.105469 268.984375 C 236.816406 266.617188 239.1875 264.722656 239.1875 262.828125 C 239.1875 261.40625 238.003906 260.695312 237.292969 259.035156 C 236.582031 256.667969 235.632812 252.875 235.394531 250.035156 C 235.394531 247.429688 235.871094 243.164062 236.105469 242.691406 C 236.105469 242.453125 236.105469 242.453125 236.105469 242.453125 C 236.105469 242.453125 235.632812 242.453125 235.394531 242.21875 C 234.921875 242.21875 234.449219 241.980469 234.449219 241.980469 C 234.449219 241.980469 233.738281 241.742188 233.5 241.742188 C 233.265625 241.507812 232.554688 241.269531 232.554688 241.269531 C 232.554688 241.269531 232.078125 240.796875 231.84375 240.558594 C 231.605469 240.320312 231.132812 239.847656 231.132812 239.847656 C 231.132812 239.847656 230.894531 239.375 230.660156 239.136719 C 230.421875 238.898438 230.183594 238.425781 230.183594 238.425781 C 230.183594 238.425781 229.949219 237.714844 229.710938 237.480469 C 229.710938 237.242188 229.472656 236.53125 229.472656 236.53125 C 229.472656 236.53125 229.238281 235.820312 229.238281 235.582031 C 229.238281 235.347656 229.238281 234.636719 229.238281 234.636719 M 270.457031 194.601562 C 272.824219 194.128906 270.929688 192.234375 270.457031 192.46875 C 270.21875 192.46875 270.457031 194.601562 270.457031 194.601562 " clip-rule="nonzero"/></clipPath><clipPath id="8c121315b2"><path d="M 187.527344 138 L 348 138 L 348 321 L 187.527344 321 Z M 187.527344 138 " clip-rule="nonzero"/></clipPath></defs><rect x="-37.5" width="450" fill="#ffffff" y="-37.499999" height="449.999989" fill-opacity="1"/><rect x="-37.5" width="450" fill="#ffffff" y="-37.499999" height="449.999989" fill-opacity="1"/><path fill="#0b94fc" d="M 265.625 93.75 L 156.253906 125 L 156.253906 210.9375 C 156.253906 284.976562 201.449219 348.304688 265.625 375 C 329.804688 348.304688 375 284.976562 375 210.9375 L 375 125 Z M 277.34375 223.316406 L 277.34375 273.441406 L 253.90625 273.441406 L 253.90625 223.316406 C 246.933594 219.261719 242.1875 211.800781 242.1875 203.128906 C 242.1875 190.171875 252.671875 179.691406 265.625 179.691406 C 278.582031 179.691406 289.0625 190.171875 289.0625 203.128906 C 289.0625 211.800781 284.316406 219.257812 277.34375 223.316406 Z M 277.34375 223.316406 " fill-opacity="1" fill-rule="nonzero"/><path fill="#0b94fc" d="M 187.5 339.84375 L 121.75 339.84375 C 117.683594 332.878906 110.210938 328.125 101.558594 328.125 C 88.621094 328.125 78.121094 338.625 78.121094 351.5625 C 78.121094 364.507812 88.621094 375 101.558594 375 C 110.210938 375 117.679688 370.257812 121.75 363.28125 L 187.5 363.28125 Z M 187.5 339.84375 " fill-opacity="1" fill-rule="nonzero"/><path fill="#0b94fc" d="M 132.816406 246.09375 L 43.625 246.09375 C 39.558594 239.128906 32.089844 234.375 23.4375 234.375 C 10.5 234.375 0 244.875 0 257.8125 C 0 270.757812 10.5 281.25 23.4375 281.25 C 32.089844 281.25 39.558594 276.507812 43.625 269.53125 L 132.816406 269.53125 Z M 132.816406 246.09375 " fill-opacity="1" fill-rule="nonzero"/><path fill="#0b94fc" d="M 35.15625 199.21875 L 35.15625 121.753906 C 42.132812 117.695312 46.875 110.21875 46.875 101.5625 C 46.875 88.621094 36.375 78.125 23.4375 78.125 C 10.5 78.125 0 88.621094 0 101.5625 C 0 110.21875 4.742188 117.6875 11.71875 121.753906 L 11.71875 222.65625 L 132.816406 222.65625 L 132.816406 199.21875 Z M 35.15625 199.21875 " fill-opacity="1" fill-rule="nonzero"/><path fill="#0b94fc" d="M 144.535156 23.4375 C 144.535156 10.5 134.035156 0 121.097656 0 C 108.148438 0 97.660156 10.5 97.660156 23.4375 C 97.660156 32.089844 102.402344 39.566406 109.378906 43.625 L 109.378906 128.90625 L 132.816406 128.90625 L 132.816406 43.625 C 139.78125 39.566406 144.535156 32.089844 144.535156 23.4375 Z M 144.535156 23.4375 " fill-opacity="1" fill-rule="nonzero"/><path fill="#0b94fc" d="M 242.1875 0 C 233.535156 0 226.058594 4.75 222 11.71875 L 156.253906 11.71875 L 156.253906 93.75 L 179.691406 93.75 L 179.691406 35.15625 L 222 35.15625 C 226.054688 42.132812 233.535156 46.875 242.1875 46.875 C 255.125 46.875 265.625 36.378906 265.625 23.4375 C 265.625 10.5 255.125 0 242.1875 0 Z M 242.1875 0 " fill-opacity="1" fill-rule="nonzero"/><path fill="#0b94fc" d="M 65.453125 292.96875 L 29.433594 328.996094 C 27.5 328.492188 25.519531 328.125 23.4375 328.125 C 10.5 328.125 0 338.625 0 351.5625 C 0 364.507812 10.5 375 23.4375 375 C 36.375 375 46.875 364.507812 46.875 351.5625 C 46.875 349.476562 46.519531 347.488281 46.003906 345.566406 L 75.15625 316.40625 L 156.253906 316.40625 L 156.253906 292.96875 Z M 65.453125 292.96875 " fill-opacity="1" fill-rule="nonzero"/><path fill="#0b94fc" d="M 82.03125 152.34375 L 82.03125 65.460938 L 46.003906 29.433594 C 46.519531 27.511719 46.875 25.527344 46.875 23.4375 C 46.875 10.5 36.375 0 23.4375 0 C 10.5 0 0 10.5 0 23.4375 C 0 36.378906 10.5 46.875 23.4375 46.875 C 25.519531 46.875 27.511719 46.507812 29.433594 46.003906 L 58.59375 75.164062 L 58.59375 175.78125 L 132.816406 175.78125 L 132.816406 152.34375 Z M 82.03125 152.34375 " fill-opacity="1" fill-rule="nonzero"/><g clip-path="url(#711e7d622e)"><g clip-path="url(#f14eec94ee)"><path fill="#0d99ff" d="M 219.761719 148.644531 L 315.9375 148.644531 L 315.9375 310.191406 L 219.761719 310.191406 Z M 219.761719 148.644531 " fill-opacity="1" fill-rule="nonzero"/></g></g><g clip-path="url(#8c121315b2)"><path fill="#100f0d" d="M 268.0625 153.632812 C 268.53125 153.632812 268.941406 153.847656 269.460938 154.238281 C 278.40625 161.019531 288.324219 166.371094 298.9375 170.132812 C 308.839844 173.644531 319.71875 175.910156 331.273438 176.859375 L 331.300781 176.859375 C 332.0625 176.933594 332.660156 177.578125 332.667969 178.371094 C 332.921875 195.699219 330.488281 213.167969 325.429688 230.3125 C 316.402344 260.90625 298.636719 285.195312 272.621094 302.488281 C 268.835938 305.003906 266.292969 305.152344 262.539062 303.074219 C 228.433594 284.152344 209.214844 254.152344 203.765625 211.351562 C 202.460938 201.128906 202.035156 190.648438 202.460938 179.308594 C 202.507812 178.007812 203.488281 176.925781 204.78125 176.757812 C 217.226562 175.0625 230.429688 172.957031 242.996094 167.441406 C 250.8125 164.011719 258.308594 159.820312 265.269531 155.003906 C 266.621094 154.0625 267.394531 153.632812 268.0625 153.632812 Z M 347.265625 177.457031 C 347.191406 174.53125 346.988281 171.4375 345.617188 168.71875 C 344.015625 165.539062 341.265625 163.378906 337.195312 162.101562 C 333.917969 161.078125 330.273438 160.789062 327.070312 160.527344 L 327.015625 160.527344 C 311.492188 159.277344 296.375 153.882812 283.277344 144.921875 C 282.867188 144.640625 282.457031 144.363281 282.046875 144.074219 C 278.042969 141.296875 273.894531 138.417969 268.847656 138.175781 C 263.171875 137.898438 258.179688 141.140625 253.773438 144.007812 C 253.402344 144.242188 253.039062 144.476562 252.683594 144.71875 C 242.492188 151.265625 231.378906 156 219.640625 158.777344 C 214.480469 159.996094 208.945312 160.816406 202.21875 161.367188 C 195.855469 161.878906 191.386719 164.765625 189.296875 169.714844 C 187.835938 173.160156 187.640625 176.859375 187.558594 180.671875 C 187.492188 183.578125 187.480469 186.492188 187.519531 189.324219 C 187.921875 222.085938 194.785156 249.738281 207.941406 271.527344 C 213.136719 280.148438 219.613281 288.28125 227.175781 295.707031 C 234.257812 302.65625 242.304688 309.011719 251.117188 314.601562 C 256.007812 317.703125 261.320312 320.542969 267.058594 320.542969 C 267.394531 320.542969 267.726562 320.535156 268.0625 320.515625 C 273.105469 320.21875 277.613281 317.703125 281.730469 315.019531 C 292.378906 308.078125 302.140625 299.367188 310.75 289.109375 C 319.152344 279.085938 326.269531 267.828125 331.878906 255.652344 C 342.730469 232.117188 348.050781 205.082031 347.265625 177.457031 " fill-opacity="1" fill-rule="nonzero"/></g><path fill="#100f0d" d="M 301.824219 213.613281 C 301.683594 214.492188 301.03125 215.171875 300.410156 215.796875 C 287.476562 228.726562 274.574219 241.675781 261.65625 254.609375 C 260.554688 255.707031 259.167969 256.902344 257.65625 256.554688 C 256.820312 256.359375 256.167969 255.726562 255.5625 255.121094 C 248.59375 248.144531 241.625 241.175781 234.65625 234.195312 C 233.847656 233.386719 232.980469 232.445312 232.980469 231.296875 C 232.988281 230.179688 233.828125 229.257812 234.621094 228.464844 C 236.726562 226.332031 238.832031 224.207031 240.9375 222.074219 C 241.773438 221.226562 242.742188 220.324219 243.9375 220.277344 C 245.257812 220.210938 246.359375 221.21875 247.289062 222.160156 C 250.980469 225.859375 254.667969 229.554688 258.355469 233.246094 C 268.128906 223.453125 277.902344 213.652344 287.671875 203.859375 C 288.511719 203.023438 289.460938 202.136719 290.644531 202.089844 C 291.949219 202.042969 293.019531 203.039062 293.941406 203.960938 C 295.984375 206.023438 298.03125 208.089844 300.082031 210.160156 C 301.023438 211.117188 302.046875 212.292969 301.824219 213.613281 Z M 320.867188 189.046875 C 320.847656 187.574219 319.730469 186.335938 318.257812 186.214844 C 318.257812 186.203125 318.246094 186.203125 318.238281 186.203125 C 300.726562 184.761719 284.433594 179.507812 269.992188 168.566406 C 267.941406 167.023438 266.433594 167.933594 264.699219 169.128906 C 259.1875 172.945312 253.390625 176.179688 247.28125 178.863281 C 237.546875 183.128906 227.289062 184.796875 216.621094 186.234375 C 215.226562 186.417969 214.171875 187.574219 214.117188 188.980469 C 213.734375 198.167969 214.03125 206.839844 215.132812 215.476562 C 219.351562 248.628906 234.386719 273.90625 262.671875 289.601562 C 266.21875 291.570312 268.941406 291.382812 272.414062 289.074219 C 293.347656 275.164062 307.675781 255.820312 315.050781 230.804688 C 319.058594 217.230469 321.078125 203.3125 320.867188 189.046875 " fill-opacity="1" fill-rule="nonzero"/></svg>